HIERARCHY
ROOT Pelvis
{
	OFFSET 0.000000 0.000000 0.000000
	CHANNELS 6 Xposition Yposition Zposition Xrotation Yrotation Zrotation
	JOINT LeftUpLeg_virtual
	{
		OFFSET 0.000000 0.000000 0.000000
		CHANNELS 3 Xrotation Yrotation Zrotation
		JOINT LeftUpLeg
		{
			OFFSET 18.735201 -5.666702 -4.541200
			CHANNELS 3 Xrotation Yrotation Zrotation
			JOINT LeftLeg
			{
				OFFSET -0.021200 -31.938179 0.493100
				CHANNELS 3 Xrotation Yrotation Zrotation
				JOINT LeftFoot
				{
					OFFSET 0.021200 -31.938179 -4.336299
					CHANNELS 3 Xrotation Yrotation Zrotation
					JOINT LeftToeBase
					{
						OFFSET 0.943001 -26.722000 15.023500
						CHANNELS 3 Xrotation Yrotation Zrotation
						End Site
						{
							OFFSET 0 0 0
						}
					}
				}
			}
		}
	}
	JOINT RightUpLeg_virtual
	{
		OFFSET 0.000000 0.000000 0.000000
		CHANNELS 3 Xrotation Yrotation Zrotation
		JOINT RightUpLeg
		{
			OFFSET -18.735201 -5.666702 -4.541200
			CHANNELS 3 Xrotation Yrotation Zrotation
			JOINT RightLeg
			{
				OFFSET 0.018946 -31.938133 0.493100
				CHANNELS 3 Xrotation Yrotation Zrotation
				JOINT RightFoot
				{
					OFFSET -0.018946 -31.938126 -4.336299
					CHANNELS 3 Xrotation Yrotation Zrotation
					JOINT RightToeBase
					{
						OFFSET -0.943001 -26.722004 15.023500
						CHANNELS 3 Xrotation Yrotation Zrotation
						End Site
						{
							OFFSET 0 0 0
						}
					}
				}
			}
		}
	}
	JOINT Hips_virtual
	{
		OFFSET 0.000000 0.000000 0.000000
		CHANNELS 3 Xrotation Yrotation Zrotation
		JOINT Hips
		{
			OFFSET -0.000000 -0.000000 -0.000000
			CHANNELS 3 Xrotation Yrotation Zrotation
			JOINT Spine
			{
				OFFSET 0.000000 10.199997 -0.299500
				CHANNELS 3 Xrotation Yrotation Zrotation
				JOINT Spine1
				{
					OFFSET 0.000000 11.900002 -1.516600
					CHANNELS 3 Xrotation Yrotation Zrotation
					JOINT Spine2
					{
						OFFSET 0.000000 13.600006 -2.842500
						CHANNELS 3 Xrotation Yrotation Zrotation
						JOINT Neck_virtual
						{
							OFFSET 0.000000 0.000000 0.000000
							CHANNELS 3 Xrotation Yrotation Zrotation
							JOINT Neck
							{
								OFFSET 0.000000 9.624100 -2.890100
								CHANNELS 3 Xrotation Yrotation Zrotation
								JOINT Head
								{
									OFFSET 0.000000 14.068802 -1.351900
									CHANNELS 3 Xrotation Yrotation Zrotation
									End Site
									{
										OFFSET 0 0 0
									}
								}
							}
						}
						JOINT LeftShoulder_virtual
						{
							OFFSET 0.000000 0.000000 0.000000
							CHANNELS 3 Xrotation Yrotation Zrotation
							JOINT LeftShoulder
							{
								OFFSET 15.263000 10.923401 -0.547700
								CHANNELS 3 Xrotation Yrotation Zrotation
								JOINT LeftArm
								{
									OFFSET 25.438599 -2.830597 -13.032500
									CHANNELS 3 Xrotation Yrotation Zrotation
									JOINT LeftForeArm
									{
										OFFSET 29.960503 0.000000 0.000000
										CHANNELS 3 Xrotation Yrotation Zrotation
										JOINT LeftHand
										{
											OFFSET 27.849251 0.000000 0.000000
											CHANNELS 3 Xrotation Yrotation Zrotation
											End Site
											{
												OFFSET 0 0 0
											}
										}
									}
								}
							}
						}
						JOINT RightShoulder_virtual
						{
							OFFSET 0.000000 0.000000 0.000000
							CHANNELS 3 Xrotation Yrotation Zrotation
							JOINT RightShoulder
							{
								OFFSET -15.263000 10.923401 -0.547700
								CHANNELS 3 Xrotation Yrotation Zrotation
								JOINT RightArm
								{
									OFFSET -25.438599 -2.830597 -13.032500
									CHANNELS 3 Xrotation Yrotation Zrotation
									JOINT RightForeArm
									{
										OFFSET -29.960503 0.000000 0.000000
										CHANNELS 3 Xrotation Yrotation Zrotation
										JOINT RightHand
										{
											OFFSET -27.849251 0.000000 0.000000
											CHANNELS 3 Xrotation Yrotation Zrotation
											End Site
											{
												OFFSET 0 0 0
											}
										}
									}
								}
							}
						}
					}
				}
			}
		}
	}
}
MOTION
Frames: 8
Frame Time: 0.03333333
-1.738170 93.458565 1.543463 0.000000 0.000000 0.000000 7.401380 -15.448551 -0.949619 -31.952001 7.704450 14.335980 33.155777 4.308794 -1.488159 -14.130781 5.186240 -4.765752 0.000000 0.000000 0.000000 10.558286 -11.832655 2.107802 -16.822636 -9.331632 -14.270362 30.470860 5.069747 -0.882373 -17.999973 1.402493 12.794590 0.000000 0.000000 0.000000 -0.796362 -17.664536 0.800543 5.976216 -6.578841 -0.925134 7.889608 -1.194423 0.803290 2.189802 -0.771918 0.251990 0.000000 0.000000 0.000000 -0.418487 2.332273 0.196498 -1.526703 2.230582 -0.445630 0.000000 0.000000 0.000000 1.260727 -0.978912 1.956449 0.605032 -7.786871 0.977946 -36.891026 -11.970125 -38.981413 -8.169254 -55.188765 -2.237155 0.000000 0.000000 0.000000 3.214248 -1.144147 1.300688 3.226966 4.754075 9.456367 11.080273 -3.776503 53.283976 5.345829 33.971920 2.328190 0.000000 0.000000 0.000000 
-1.154142 92.870575 1.895071 0.000000 0.000000 0.000000 7.354517 -16.449930 -0.698144 -31.856392 7.351698 14.407326 32.701986 4.367659 -1.775298 -14.475538 5.409502 -5.257250 0.000000 0.000000 0.000000 10.384665 -12.174069 2.106589 -16.989243 -9.413625 -14.252031 30.541382 5.203454 -1.184247 -18.091028 1.691988 12.309288 0.000000 0.000000 0.000000 -2.092280 -20.435096 0.218246 5.965183 -4.846528 -1.747751 7.797709 -1.370108 0.623962 2.108270 -0.469457 0.486821 0.000000 0.000000 0.000000 -0.616473 2.370433 0.073996 -1.553195 2.514312 -0.575354 0.000000 0.000000 0.000000 0.449316 -1.155392 1.980521 1.082570 -7.173406 0.637278 -38.953942 -12.994104 -40.133754 -8.874016 -56.255125 -3.551923 0.000000 0.000000 0.000000 2.591865 -0.962289 1.263700 3.067660 6.022448 9.160253 11.503481 -5.802004 53.233139 4.693167 33.694139 2.770178 0.000000 0.000000 0.000000 
-0.944819 92.792648 2.347786 0.000000 0.000000 0.000000 7.474030 -17.186516 -0.927305 -31.687160 7.309942 14.054969 32.721374 4.556739 -1.937930 -14.516677 5.702545 -5.453884 0.000000 0.000000 0.000000 10.544464 -11.937650 1.795394 -16.643315 -9.300888 -14.551476 30.611555 5.397570 -1.617016 -18.103273 2.151693 11.651614 0.000000 0.000000 0.000000 -0.117932 -20.280437 1.478349 3.370959 -1.650937 -3.359226 9.518282 -1.976752 0.118334 2.089092 -0.772061 0.796842 0.000000 0.000000 0.000000 -0.343879 2.137340 0.319171 -1.614576 2.660247 -0.649796 0.000000 0.000000 0.000000 0.494225 -1.304930 2.086016 1.432914 -8.615858 0.500466 -38.692854 -16.706081 -40.479512 -8.536086 -57.432247 -4.137995 0.000000 0.000000 0.000000 2.410721 -1.121670 1.413074 3.420196 5.101848 8.451286 12.809120 -7.279207 53.739385 4.290767 33.590037 2.842950 0.000000 0.000000 0.000000 
-1.118625 92.898125 2.518337 0.000000 0.000000 0.000000 7.853795 -17.567851 -0.414636 -31.643563 7.173578 14.668337 32.903504 4.488829 -1.851056 -14.399794 5.589797 -5.402035 0.000000 0.000000 0.000000 10.586743 -12.387442 1.854767 -16.619604 -9.429636 -14.536756 31.317189 5.378812 -1.724985 -17.591219 2.247961 11.481813 0.000000 0.000000 0.000000 -0.994107 -20.452800 0.777130 7.423599 -3.578940 -2.848597 8.721423 -1.747841 0.614581 2.420795 -0.181243 0.627286 0.000000 0.000000 0.000000 -0.506407 2.257784 0.444931 -1.540400 2.637272 -0.697802 0.000000 0.000000 0.000000 0.527845 -1.218716 1.833103 1.023544 -6.764499 0.226001 -40.096065 -15.168781 -39.261799 -9.005113 -57.095645 -4.718547 0.000000 0.000000 0.000000 2.157123 -0.509885 1.503454 3.260209 6.550394 9.342101 11.293060 -5.990593 55.119295 3.343634 35.379369 4.183858 0.000000 0.000000 0.000000 
-0.756872 93.372932 1.245279 0.000000 0.000000 0.000000 7.412890 -18.123735 -0.389017 -31.871234 6.874378 14.563493 33.050486 4.837826 -1.754110 -14.121730 5.904425 -5.065087 0.000000 0.000000 0.000000 9.807459 -12.601101 1.886319 -17.701357 -9.362562 -14.450472 31.499583 5.529820 -1.824073 -17.445416 2.486561 11.385673 0.000000 0.000000 0.000000 0.435115 -19.877263 1.396995 6.015387 -2.938590 -1.343008 9.358186 -1.548522 -0.042887 2.000301 -0.231685 0.753560 0.000000 0.000000 0.000000 -0.679203 1.999914 0.292526 -1.720140 2.828529 -0.842324 0.000000 0.000000 0.000000 0.725833 -1.478342 1.856281 1.141502 -6.414979 -0.450497 -40.625764 -15.832052 -38.198342 -8.736952 -55.713860 -4.811258 0.000000 0.000000 0.000000 1.678774 -0.627620 1.534825 3.734244 7.284467 8.141761 12.614555 -7.352176 55.941998 2.850503 38.072540 4.810016 0.000000 0.000000 0.000000 
-0.575792 93.112091 0.307476 0.000000 0.000000 0.000000 7.519935 -18.193624 -0.564360 -31.696377 6.941896 14.362836 33.255805 5.114426 -1.579630 -13.856477 6.096076 -4.652410 0.000000 0.000000 0.000000 9.542556 -12.465455 2.038929 -18.104962 -9.293740 -14.248256 30.969348 5.432642 -1.376434 -17.915634 2.069450 11.987658 0.000000 0.000000 0.000000 -2.028688 -23.389867 1.105629 6.324181 -1.151046 -1.701440 8.084218 -1.700086 0.050730 2.138728 0.348420 0.837369 0.000000 0.000000 0.000000 -1.709627 2.012556 0.159899 -1.793600 2.805006 -0.971592 0.000000 0.000000 0.000000 0.524249 -1.563825 1.510865 1.324486 -7.350843 -0.764938 -40.709731 -14.685504 -36.745851 -7.423442 -54.423074 -3.973865 0.000000 0.000000 0.000000 1.655308 -0.548346 1.402771 4.202694 7.134186 7.118044 12.334682 -7.935501 58.111646 2.746720 35.366938 6.191547 0.000000 0.000000 0.000000 
-0.223899 92.806366 1.033728 0.000000 0.000000 0.000000 7.321098 -18.714554 -0.593612 -32.022714 6.780089 14.342057 33.613642 5.355703 -1.680069 -13.687338 6.374338 -4.691881 0.000000 0.000000 0.000000 9.906901 -11.759623 1.854094 -17.487497 -9.118037 -14.319855 31.975186 6.033818 -1.051756 -17.339253 2.511463 12.968821 0.000000 0.000000 0.000000 -2.117397 -21.968721 1.018783 7.041692 -1.640284 -1.059144 6.869613 -0.837857 -0.183422 1.787881 0.006941 0.679454 0.000000 0.000000 0.000000 -1.338872 1.895273 -0.071517 -1.598409 2.858050 -1.174282 0.000000 0.000000 0.000000 -0.025558 -1.462637 1.162205 0.616222 -7.940909 -1.819596 -44.500598 -13.323405 -37.569923 -9.940753 -54.322270 -6.319791 0.000000 0.000000 0.000000 1.181146 -0.560544 1.061317 4.350221 6.282432 5.951455 11.842718 -9.610261 58.945905 1.708565 35.933400 7.002216 0.000000 0.000000 0.000000 
0.543289 91.598335 1.699389 0.000000 0.000000 0.000000 6.430137 -18.745608 -0.231576 -33.023968 6.359979 14.789322 33.855636 5.308237 -1.818134 -13.516881 6.421230 -4.965697 0.000000 0.000000 0.000000 9.623400 -13.103220 1.450873 -18.056534 -9.379492 -14.971978 32.968517 6.017708 -0.931758 -16.473013 2.579344 13.203242 0.000000 0.000000 0.000000 -3.412391 -24.869525 0.257896 7.487875 1.684138 -2.139536 7.779149 -0.494126 0.219649 1.444433 0.255921 0.525574 0.000000 0.000000 0.000000 -1.532303 1.832590 -0.469837 -1.641613 2.871799 -1.406812 0.000000 0.000000 0.000000 0.371002 -1.596200 0.953831 0.853324 -7.112360 -2.138633 -45.508020 -12.619888 -36.481089 -10.758242 -53.413158 -6.684782 0.000000 0.000000 0.000000 1.034345 -0.525714 0.557847 3.880321 6.342832 4.128790 12.484954 -11.139661 61.528400 1.003535 37.173503 8.630429 0.000000 0.000000 0.000000 
